<svg width="6" height="5" viewBox="0 0 6 5" fill="none" xmlns="http://www.w3.org/2000/svg">
<path d="M2.28857 2.31703L0.921371 3.00897C0.89864 3.02146 0.897629 3.04005 0.922229 3.05017L3.14577 4.17953C3.16666 4.1889 3.20348 4.18953 3.2258 4.17867L4.59341 3.48512C4.61388 3.47388 4.61488 3.45528 4.59255 3.44392L2.3686 2.31617C2.35836 2.31068 2.34315 2.3093 2.32794 2.30792C2.31415 2.30855 2.29994 2.31079 2.28857 2.31703V2.31703Z" fill="black" fill-opacity="0.2"/>
<path d="M2.2869 2.18158L0.994907 2.83652L0.994416 2.78837L0.905062 2.78878L0.903931 2.89547C0.906468 2.903 0.911342 2.90909 0.920153 2.9158L3.14669 4.0424C3.1666 4.05439 3.2034 4.05295 3.22585 4.04219L4.59217 3.35066C4.60374 3.34355 4.60907 3.33724 4.61045 3.33032L4.60998 3.2216L4.50211 3.26369L2.37002 2.18199C2.3589 2.17668 2.34315 2.17427 2.32904 2.17386C2.3282 2.17384 2.32734 2.17383 2.32649 2.17383C2.31314 2.17383 2.29931 2.17681 2.2869 2.18158V2.18158Z" fill="url(#paint0_linear_307_678)"/>
<path d="M2.28857 2.07527L0.921371 2.767C0.89864 2.77948 0.897629 2.79807 0.922229 2.80819L3.14577 3.93722C3.16666 3.94659 3.20348 3.94721 3.2258 3.93636L4.59341 3.24301C4.61388 3.23178 4.61488 3.21318 4.59255 3.20183L2.3686 2.0744C2.35836 2.06892 2.34315 2.06754 2.32794 2.06616C2.31415 2.06679 2.29994 2.06902 2.28857 2.07527V2.07527Z" fill="url(#paint1_linear_307_678)"/>
<path d="M2.09814 2.27307L2.20184 2.32571L2.30717 2.27307L2.20184 2.22015L2.09814 2.27307ZM1.94853 2.3493L2.05225 2.40271L2.15665 2.3493L2.05225 2.29692L1.94853 2.3493ZM2.29436 2.37204L2.399 2.42603L2.50339 2.37204L2.399 2.32L2.29436 2.37204ZM1.81971 2.414L2.0818 2.54649L2.18643 2.49485L1.92427 2.36097L1.81971 2.414ZM2.10563 2.42866L2.20934 2.48191L2.31396 2.42866L2.20934 2.377L2.10563 2.42866ZM2.42523 2.43932L2.53051 2.49161L2.63418 2.43932L2.53051 2.3863L2.42523 2.43932ZM1.69184 2.47956L1.95392 2.61182L2.0576 2.56003L1.79567 2.42642L1.69184 2.47956ZM2.23651 2.49607L2.34035 2.54837L2.44488 2.49607L2.34035 2.44305L2.23651 2.49607ZM2.55666 2.50564L2.66107 2.55841L2.76498 2.50564L2.66107 2.45263L2.55666 2.50564ZM1.56049 2.54537L1.82348 2.67861L1.92718 2.62532L1.66509 2.49211L1.56049 2.54537V2.54537ZM2.10856 2.56064L2.21223 2.61306L2.31701 2.56064L2.21223 2.50663L2.10856 2.56064ZM2.36722 2.56188L2.47163 2.61492L2.57625 2.56188L2.47163 2.50912L2.36722 2.56188ZM2.6871 2.57082L2.79172 2.62461L2.89543 2.57082L2.79172 2.51917L2.6871 2.57082ZM1.43202 2.61068L1.56339 2.67774L1.66651 2.62461L1.53591 2.55841L1.43202 2.61068ZM1.9801 2.62532L2.08483 2.67861L2.18854 2.62532L2.08483 2.57307L1.9801 2.62532ZM2.24004 2.62658L2.34316 2.67985L2.44779 2.62658L2.34316 2.57418L2.24004 2.62658ZM2.49801 2.62783L2.60242 2.6807L2.70703 2.62783L2.60242 2.57543L2.49801 2.62783ZM2.88374 2.67178L2.98815 2.72405L3.0922 2.67178L2.98815 2.61814L2.88374 2.67178ZM1.58954 2.69064L1.69396 2.74379L1.79872 2.69064L1.69396 2.63837L1.58954 2.69064ZM2.11087 2.69116L2.21549 2.74504L2.31989 2.69116L2.21549 2.63888L2.11087 2.69116ZM1.84859 2.69116L1.95392 2.74504L2.0576 2.69116L1.95392 2.63888L1.84859 2.69116ZM2.37011 2.69388L2.47385 2.7463L2.57917 2.69388L2.47385 2.64097L2.37011 2.69388ZM2.62916 2.69514L2.73379 2.74741L2.83749 2.69514L2.73379 2.64161L2.62916 2.69514ZM3.01504 2.73708L3.11896 2.79086L3.22265 2.73708L3.11896 2.68445L3.01504 2.73708ZM1.72068 2.75734L1.82475 2.81046L1.92915 2.75734L1.82475 2.70456L1.72068 2.75734V2.75734ZM2.24218 2.75796L2.34656 2.81046L2.45071 2.75796L2.34656 2.70529L2.24218 2.75796ZM1.9801 2.75796L2.08483 2.81046L2.18854 2.75796L2.08483 2.70529L1.9801 2.75796ZM2.50164 2.75951L2.60531 2.81284L2.71009 2.75951L2.60531 2.70703L2.50164 2.75951ZM2.75995 2.76143L2.86458 2.81414L2.96842 2.76143L2.86458 2.70829L2.75995 2.76143ZM3.14514 2.80426L3.24987 2.85605L3.35357 2.80426L3.24987 2.7511L3.14514 2.80426ZM1.85092 2.82295L2.7366 3.27303L2.84124 3.21913L1.95555 2.77137L1.85092 2.82295ZM2.37303 2.82427L2.47745 2.87741L2.58142 2.82427L2.47745 2.77162L2.37303 2.82427ZM2.11087 2.82427L2.21549 2.87741L2.31989 2.82427L2.21549 2.77162L2.11087 2.82427ZM2.63207 2.82551L2.7361 2.87866L2.84051 2.82551L2.7361 2.77305L2.63207 2.82551ZM2.89075 2.82675L2.99515 2.87976L3.09979 2.82675L2.99515 2.77436L2.89075 2.82675ZM3.27647 2.87008L3.38103 2.92311L3.48495 2.87008L3.38103 2.81742L3.27647 2.87008ZM2.50417 2.89094L2.60802 2.94321L2.71204 2.89094L2.60802 2.8378L2.50417 2.89094ZM2.24218 2.89094L2.34656 2.94321L2.45071 2.89094L2.34656 2.8378L2.24218 2.89094ZM2.76301 2.89306L2.86705 2.94583L2.97181 2.89306L2.86705 2.83904L2.76301 2.89306ZM3.02166 2.89429L3.12649 2.94655L3.2305 2.89429L3.12649 2.84089L3.02166 2.89429ZM2.6349 2.95712L2.7395 3.01002L2.8425 2.95712L2.7395 2.90411L2.6349 2.95712ZM2.37303 2.95712L2.47745 3.01002L2.58142 2.95712L2.47745 2.90411L2.37303 2.95712ZM3.14858 2.95787L3.25314 3.01101L3.35777 2.95787L3.25314 2.90547L3.14858 2.95787ZM2.89362 2.95787L2.99806 3.01137L3.10205 2.95787L2.99806 2.90547L2.89362 2.95787ZM3.47268 2.96954L3.57662 3.02262L3.68122 2.96954L3.57662 2.91701L3.47268 2.96954ZM3.02099 3.02262L3.1254 3.07571L3.22931 3.02262L3.1254 2.97036L3.02099 3.02262ZM2.76569 3.02344L2.86939 3.07645L2.97399 3.02344L2.86939 2.97036L2.76569 3.02344ZM2.50417 3.02344L2.60802 3.07645L2.71204 3.02344L2.60802 2.97036L2.50417 3.02344ZM3.27999 3.02394L3.38391 3.07645L3.48834 3.02394L3.38391 2.97139L3.27999 3.02394ZM1.76519 3.14234L2.44257 3.4851L2.76195 3.32431L2.0845 2.97997L1.76519 3.14234V3.14234ZM3.60369 3.03597L3.70739 3.08888L3.81195 3.03597L3.70739 2.98294L3.60369 3.03597ZM2.89286 3.08764L2.99678 3.14053L3.10134 3.08764L2.99678 3.03473L2.89286 3.08764ZM3.15201 3.08888L3.25674 3.14151L3.35988 3.08888L3.25674 3.03684L3.15201 3.08888ZM2.6349 3.08987L2.7395 3.14276L2.8425 3.08987L2.7395 3.03721L2.6349 3.08987ZM3.41066 3.09097L3.51505 3.14376L3.61913 3.09097L3.51505 3.03789L3.41066 3.09097ZM3.73413 3.10179L3.83869 3.15506L3.94262 3.10179L3.83869 3.0489L3.73413 3.10179ZM3.02354 3.15441L3.12807 3.20622L3.23178 3.15441L3.12807 3.10154L3.02354 3.15441ZM2.76208 3.15441L2.86578 3.20622L2.9697 3.15441L2.86578 3.10154L2.76208 3.15441ZM3.28219 3.15506L3.38731 3.20794L3.4903 3.15506L3.38731 3.10277L3.28219 3.15506ZM3.54193 3.15693L3.64494 3.20919L3.75041 3.15693L3.64494 3.10463L3.54193 3.15693ZM3.86486 3.16847L3.96926 3.22162L4.07375 3.16847L3.96926 3.11518L3.86486 3.16847V3.16847ZM3.15424 3.22039L3.25886 3.27345L3.36277 3.22039L3.25886 3.16759L3.15424 3.22039ZM2.89286 3.22039L2.99678 3.27345L3.10134 3.22039L2.99678 3.16759L2.89286 3.22039ZM3.41356 3.22162L3.51798 3.27477L3.6211 3.22162L3.51798 3.16847L3.41356 3.22162ZM3.67259 3.22353L3.77665 3.276L3.88105 3.22353L3.77665 3.16997L3.67259 3.22353ZM3.99622 3.23516L4.18927 3.3326L4.29312 3.2796L4.10154 3.18275L3.99622 3.23516V3.23516ZM2.76357 3.28555L2.86705 3.33896L2.97181 3.28555L2.86705 3.23252L2.76357 3.28555ZM3.28561 3.2868L3.3895 3.33946L3.49407 3.2868L3.3895 3.2339L3.28561 3.2868ZM3.02354 3.2868L3.12807 3.33946L3.23178 3.2868L3.12807 3.2339L3.02354 3.2868ZM3.54414 3.28812L3.6489 3.34145L3.75239 3.28812L3.6489 3.23516L3.54414 3.28812ZM3.80335 3.2894L3.90702 3.34232L4.01164 3.2894L3.90702 3.23644L3.80335 3.2894ZM2.89415 3.35259L2.99806 3.40514L3.10353 3.35259L2.99806 3.29928L2.89415 3.35259ZM3.67831 3.35259L3.8089 3.41941L3.67831 3.48583L3.78202 3.5383L4.01757 3.41941L3.78202 3.30058L3.67831 3.35259ZM3.4157 3.35259L3.52022 3.40588L3.62415 3.35259L3.52022 3.30058L3.4157 3.35259ZM3.15424 3.35259L3.25886 3.40588L3.36277 3.35259L3.25886 3.30058L3.15424 3.35259ZM3.93419 3.35595L4.03803 3.40874L4.14316 3.35595L4.03803 3.30319L3.93419 3.35595ZM3.02549 3.4182L3.12937 3.47184L3.23304 3.4182L3.12937 3.36622L3.02549 3.4182ZM3.54697 3.41941L3.65067 3.47269L3.75528 3.41941L3.65067 3.36682L3.54697 3.41941ZM3.28561 3.41941L3.3895 3.47269L3.49407 3.41941L3.3895 3.36682L3.28561 3.41941ZM3.15553 3.48448L3.26106 3.5375L3.36454 3.48448L3.26106 3.43219L3.15553 3.48448ZM3.4157 3.48583L3.65067 3.60495L3.75528 3.55265L3.52022 3.43346L3.4157 3.48583ZM3.28688 3.55123L3.52245 3.67009L3.62685 3.61773L3.39235 3.49862L3.28688 3.55123V3.55123Z" fill="url(#paint2_linear_307_678)"/>
<path d="M2.09651 2.26116L2.20019 2.31381L2.30553 2.26116L2.20019 2.20825L2.09651 2.26116ZM1.94688 2.33738L2.0506 2.39078L2.15501 2.33738L2.0506 2.28501L1.94688 2.33738ZM2.29273 2.36012L2.39733 2.41413L2.50174 2.36012L2.39733 2.3081L2.29273 2.36012ZM1.81808 2.4021L2.08015 2.5346L2.18478 2.48293L1.92264 2.34907L1.81808 2.4021ZM2.10399 2.41675L2.2077 2.47001L2.31232 2.41675L2.2077 2.36509L2.10399 2.41675ZM2.4236 2.42741L2.52885 2.47971L2.63257 2.42741L2.52885 2.3744L2.4236 2.42741ZM1.6902 2.46768L1.95228 2.5999L2.05597 2.54812L1.79404 2.41452L1.6902 2.46768V2.46768ZM2.23486 2.48418L2.3387 2.53645L2.44326 2.48418L2.3387 2.43114L2.23486 2.48418ZM2.55502 2.49373L2.65943 2.54651L2.76335 2.49373L2.65943 2.44072L2.55502 2.49373ZM1.55883 2.53346L1.82184 2.6667L1.92552 2.61344L1.66345 2.4802L1.55883 2.53346V2.53346ZM2.10692 2.54873L2.2106 2.60116L2.31535 2.54873L2.2106 2.49472L2.10692 2.54873ZM2.3656 2.55001L2.46999 2.603L2.57461 2.55001L2.46999 2.49722L2.3656 2.55001ZM2.68546 2.5589L2.79009 2.6127L2.8938 2.5589L2.79009 2.50726L2.68546 2.5589ZM1.43036 2.59879L1.56173 2.66584L1.66487 2.6127L1.53427 2.54651L1.43036 2.59879V2.59879ZM1.97844 2.61344L2.08321 2.6667L2.18689 2.61344L2.08321 2.56116L1.97844 2.61344ZM2.2384 2.61469L2.34152 2.66796L2.44616 2.61469L2.34152 2.56229L2.2384 2.61469ZM2.49639 2.61593L2.6008 2.66883L2.70541 2.61593L2.6008 2.56354L2.49639 2.61593ZM2.88211 2.65987L2.98652 2.71215L3.09056 2.65987L2.98652 2.60624L2.88211 2.65987ZM1.5879 2.67875L1.69231 2.73189L1.79707 2.67875L1.69231 2.62649L1.5879 2.67875V2.67875ZM2.10922 2.67926L2.21386 2.73312L2.31825 2.67926L2.21386 2.62696L2.10922 2.67926ZM1.84694 2.67926L1.95228 2.73312L2.05597 2.67926L1.95228 2.62696L1.84694 2.67926ZM2.36848 2.682L2.47218 2.73439L2.5775 2.682L2.47218 2.62908L2.36848 2.682ZM2.62753 2.68324L2.73213 2.73552L2.83584 2.68324L2.73213 2.62971L2.62753 2.68324ZM3.0134 2.72521L3.1173 2.77895L3.22101 2.72521L3.1173 2.67253L3.0134 2.72521ZM1.71905 2.74545L1.82311 2.79856L1.92752 2.74545L1.82311 2.69265L1.71905 2.74545V2.74545ZM2.24052 2.74605L2.34493 2.79856L2.44905 2.74605L2.34493 2.69339L2.24052 2.74605ZM1.97844 2.74605L2.08321 2.79856L2.18689 2.74605L2.08321 2.69339L1.97844 2.74605ZM2.49999 2.74761L2.60369 2.80093L2.70844 2.74761L2.60369 2.69514L2.49999 2.74761ZM2.7583 2.74952L2.86295 2.80225L2.96678 2.74952L2.86295 2.69638L2.7583 2.74952ZM3.1435 2.79235L3.24825 2.84415L3.35195 2.79235L3.24825 2.73921L3.1435 2.79235ZM1.84928 2.81106L2.73496 3.26112L2.83961 3.20721L1.9539 2.75946L1.84928 2.81106V2.81106ZM2.37139 2.81236L2.4758 2.86552L2.57979 2.81236L2.4758 2.75971L2.37139 2.81236ZM2.10922 2.81236L2.21386 2.86552L2.31825 2.81236L2.21386 2.75971L2.10922 2.81236ZM2.63044 2.81361L2.73448 2.86675L2.83889 2.81361L2.73448 2.76114L2.63044 2.81361ZM2.88912 2.81485L2.99352 2.86786L3.09814 2.81485L2.99352 2.76245L2.88912 2.81485ZM3.27485 2.85819L3.37941 2.9112L3.48333 2.85819L3.37941 2.80551L3.27485 2.85819ZM2.50254 2.87905L2.60636 2.9313L2.71044 2.87905L2.60636 2.8259L2.50254 2.87905ZM2.24052 2.87905L2.34493 2.9313L2.44905 2.87905L2.34493 2.8259L2.24052 2.87905ZM2.76138 2.88116L2.86543 2.93393L2.97018 2.88116L2.86543 2.82714L2.76138 2.88116ZM3.02004 2.88239L3.12487 2.93468L3.22885 2.88239L3.12487 2.82899L3.02004 2.88239ZM2.63326 2.94523L2.73788 2.99813L2.84085 2.94523L2.73788 2.8922L2.63326 2.94523ZM2.37139 2.94523L2.4758 2.99813L2.57979 2.94523L2.4758 2.8922L2.37139 2.94523ZM3.14695 2.94597L3.2515 2.99912L3.35612 2.94597L3.2515 2.89357L3.14695 2.94597ZM2.89203 2.94597L2.99643 2.99949L3.10043 2.94597L2.99643 2.89357L2.89203 2.94597ZM3.47104 2.95762L3.57499 3.01072L3.67959 2.95762L3.57499 2.9051L3.47104 2.95762ZM3.01936 3.01072L3.12376 3.0638L3.22768 3.01072L3.12376 2.95846L3.01936 3.01072ZM2.76407 3.01153L2.86775 3.06455L2.97237 3.01153L2.86775 2.95846L2.76407 3.01153ZM2.50254 3.01153L2.60636 3.06455L2.71044 3.01153L2.60636 2.95846L2.50254 3.01153ZM3.27837 3.01204L3.38228 3.06455L3.4867 3.01204L3.38228 2.9595L3.27837 3.01204ZM3.60206 3.02407L3.70579 3.07697L3.81033 3.02407L3.70579 2.97107L3.60206 3.02407ZM1.76517 3.14756L2.44255 3.49033L2.76193 3.32954L2.08448 2.98521L1.76517 3.14756ZM2.89122 3.07574L2.99514 3.12862L3.0997 3.07574L2.99514 3.02282L2.89122 3.07574ZM3.15034 3.07697L3.2551 3.12963L3.35827 3.07697L3.2551 3.02493L3.15034 3.07697ZM2.63326 3.07796L2.73788 3.13087L2.84085 3.07796L2.73788 3.02531L2.63326 3.07796ZM3.40903 3.07908L3.51343 3.13187L3.6175 3.07908L3.51343 3.026L3.40903 3.07908ZM3.73251 3.08989L3.83706 3.14315L3.94097 3.08989L3.83706 3.037L3.73251 3.08989ZM3.02191 3.14253L3.12643 3.19431L3.23014 3.14253L3.12643 3.08964L3.02191 3.14253ZM2.76044 3.14253L2.86415 3.19431L2.96807 3.14253L2.86415 3.08964L2.76044 3.14253ZM3.28057 3.14315L3.38568 3.19607L3.48867 3.14315L3.38568 3.09089L3.28057 3.14315ZM3.54032 3.14503L3.64331 3.19729L3.74878 3.14503L3.64331 3.09273L3.54032 3.14503ZM3.86323 3.15656L3.96765 3.20971L4.07213 3.15656L3.96765 3.10329L3.86323 3.15656ZM3.15262 3.20845L3.25722 3.26155L3.36113 3.20845L3.25722 3.15569L3.15262 3.20845ZM2.89122 3.20845L2.99514 3.26155L3.0997 3.20845L2.99514 3.15569L2.89122 3.20845ZM3.41193 3.20971L3.51634 3.26285L3.61949 3.20971L3.51634 3.15656L3.41193 3.20971ZM3.67098 3.21165L3.77502 3.26411L3.87942 3.21165L3.77502 3.15806L3.67098 3.21165ZM3.99458 3.22323L4.18764 3.32072L4.29148 3.26773L4.09992 3.17084L3.99458 3.22323ZM2.76193 3.27367L2.86543 3.32705L2.97018 3.27367L2.86543 3.22063L2.76193 3.27367ZM3.28397 3.27491L3.38787 3.32755L3.49242 3.27491L3.38787 3.22201L3.28397 3.27491ZM3.02191 3.27491L3.12643 3.32755L3.23014 3.27491L3.12643 3.22201L3.02191 3.27491ZM3.54251 3.2762L3.64728 3.32954L3.75078 3.2762L3.64728 3.22323L3.54251 3.2762ZM3.8017 3.27749L3.90539 3.3304L4.01002 3.27749L3.90539 3.22454L3.8017 3.27749ZM2.89251 3.34069L2.99643 3.39324L3.10188 3.34069L2.99643 3.28736L2.89251 3.34069ZM3.67672 3.34069L3.80728 3.40751L3.67672 3.47394L3.7804 3.52642L4.01595 3.40751L3.7804 3.28869L3.67672 3.34069ZM3.41407 3.34069L3.51861 3.39398L3.6225 3.34069L3.51861 3.28869L3.41407 3.34069ZM3.15262 3.34069L3.25722 3.39398L3.36113 3.34069L3.25722 3.28869L3.15262 3.34069ZM3.93256 3.34407L4.0364 3.39685L4.1415 3.34407L4.0364 3.29129L3.93256 3.34407ZM3.02388 3.40626L3.12773 3.4599L3.2314 3.40626L3.12773 3.35432L3.02388 3.40626ZM3.54534 3.40751L3.64903 3.46078L3.75366 3.40751L3.64903 3.35493L3.54534 3.40751ZM3.28397 3.40751L3.38787 3.46078L3.49242 3.40751L3.38787 3.35493L3.28397 3.40751ZM3.15389 3.47259L3.25943 3.5256L3.36292 3.47259L3.25943 3.42029L3.15389 3.47259ZM3.41407 3.47394L3.64903 3.59301L3.75366 3.54075L3.51861 3.42154L3.41407 3.47394ZM3.28524 3.53933L3.52079 3.65824L3.62519 3.60583L3.39071 3.48674L3.28524 3.53933Z" fill="url(#paint3_linear_307_678)"/>
<path d="M2.34979 0.615284L2.39673 0.670433L2.40855 0.661147L2.40686 1.98767C2.40591 2.01012 2.42478 2.03946 2.44802 2.04889L4.62 3.1497L4.63269 3.21308L4.69951 3.17997L4.69923 3.17718C4.70871 3.17646 4.71106 3.16789 4.71311 3.15653L4.71214 1.77143C4.71309 1.74898 4.69423 1.71964 4.67099 1.71024L2.44852 0.58252L2.34979 0.615284V0.615284Z" fill="url(#paint4_linear_307_678)"/>
<path d="M2.34052 0.635805L2.33978 2.02244C2.33964 2.04456 2.35884 2.07174 2.38064 2.08343L4.60607 3.21081C4.62656 3.2217 4.64536 3.21276 4.6455 3.19064L4.64534 1.80514C4.64637 1.78188 4.62719 1.7547 4.60539 1.74301L2.38126 0.616438C2.37383 0.613568 2.36898 0.612308 2.36324 0.612183C2.33934 0.612865 2.34052 0.635805 2.34052 0.635805V0.635805Z" fill="url(#paint5_linear_307_678)"/>
<path d="M2.4412 1.91573L4.547 2.98251L4.54823 2.9454L2.47944 1.89769L2.47916 0.765875L2.44215 0.746826L2.4412 1.91573Z" fill="url(#paint6_linear_307_678)"/>
<path d="M2.47815 1.89747L4.54727 2.94604L4.54907 1.81433L2.47752 0.764526L2.47815 1.89747V1.89747Z" fill="url(#paint7_linear_307_678)"/>
<path fill-rule="evenodd" clip-rule="evenodd" d="M2.96258 1.99466L3.05759 2.0428V2.08987L2.96258 2.04172V1.99466ZM3.34922 1.71256L3.91086 1.99726V2.04432L3.34922 1.75962V1.71256ZM2.90427 1.91657L2.65764 1.79153V1.74446L2.90427 1.8695V1.91657ZM4.21746 1.81728L4.12247 1.76912V1.72206L4.21746 1.77021V1.81728ZM2.90427 1.72533L2.65764 1.60032V1.55326L2.90427 1.67827V1.72533V1.72533ZM3.29091 1.63447L2.96258 1.46802V1.42096L3.29091 1.5874V1.63447Z" fill="#4DCEFF"/>
<path fill-rule="evenodd" clip-rule="evenodd" d="M2.96256 1.89902L3.17421 2.00631V2.05337L2.96256 1.94608V1.89902V1.89902ZM3.34919 1.90378L3.44418 1.95192V1.99898L3.34919 1.95084V1.90378ZM2.90427 1.53407L2.65764 1.40904V1.362L2.90427 1.48701V1.53407ZM3.44418 1.52092L3.11587 1.3545V1.30743L3.44418 1.47384V1.52092V1.52092Z" fill="#FEA21D"/>
<path fill-rule="evenodd" clip-rule="evenodd" d="M3.73583 2.38661L3.83084 2.43478V2.48184L3.73583 2.43368V2.38661ZM3.94748 1.87167L3.26918 1.52782V1.48077L3.94748 1.82461V1.87167ZM3.05759 1.70745L2.96257 1.65926V1.61219L3.05759 1.66038V1.70745ZM2.90427 1.43848L2.65764 1.31349V1.26642L2.90427 1.39142V1.43848Z" fill="#40CD8E"/>
<path fill-rule="evenodd" clip-rule="evenodd" d="M3.34925 1.99939L4.02756 2.34321V2.39027L3.34925 2.04646V1.99939ZM4.06422 2.21761L3.73588 2.05118V2.00411L4.06422 2.17054V2.21761ZM3.44425 1.42529L3.34925 1.37713V1.33008L3.44425 1.37823V1.42529Z" fill="#FC3C37"/>
<path fill-rule="evenodd" clip-rule="evenodd" d="M3.88918 2.46432L4.21752 2.63074V2.6778L3.88918 2.51138V2.46432ZM4.23918 2.4505L4.33417 2.49865V2.54571L4.23918 2.49757V2.4505ZM4.08586 2.37279L4.18086 2.42095V2.46801L4.08586 2.41985V2.37279ZM3.11591 2.07235L3.67757 2.35705V2.40412L3.11591 2.11941V2.07235V2.07235ZM3.61918 2.23186L3.7142 2.28002V2.32708L3.61918 2.27892V2.23186ZM3.23255 2.03588L3.56088 2.2023V2.24937L3.23255 2.08295V2.03588V2.03588ZM3.50255 1.9815L3.83089 2.14793V2.195L3.50255 2.02856V1.9815ZM3.9692 2.0268L4.0642 2.07496V2.12202L3.9692 2.07387V2.0268V2.0268ZM4.3342 2.06764L4.00586 1.90121V1.85414L4.3342 2.02057V2.06764V2.06764ZM3.67757 2.02165L3.11591 1.73697V1.6899L3.67757 1.97458V2.02165V2.02165ZM2.96259 1.80343L3.29093 1.96987V2.01692L2.96259 1.85048V1.80343ZM2.90428 2.01218L2.65764 1.88714V1.84007L2.90428 1.9651V2.01218ZM2.96259 1.70782L3.29093 1.87426V1.92132L2.96259 1.75489V1.70782V1.70782ZM3.83089 1.90813L3.50255 1.74171V1.69464L3.83089 1.86106V1.90813ZM2.90428 1.82094L2.65764 1.69592V1.64885L2.90428 1.77388V1.82094ZM4.06422 1.73957L3.50255 1.45487V1.4078L4.06422 1.69249V1.73957ZM2.96259 1.51658L3.29093 1.68301V1.73007L2.96259 1.56365V1.51658ZM3.83089 1.71691L3.50255 1.55048V1.50343L3.83089 1.66985V1.71691ZM3.44424 1.71215L3.34924 1.66401V1.61695L3.44424 1.66509V1.71215ZM2.90428 1.62971L2.65764 1.50469V1.45763L2.90428 1.58263V1.62971ZM3.21091 1.49827L3.11591 1.45013V1.40306L3.21091 1.4512V1.49827ZM3.05761 1.42057L2.96259 1.3724V1.32534L3.05761 1.37351V1.42057ZM3.29093 1.34761L2.96259 1.1812V1.13412L3.29093 1.30055V1.34761ZM2.90428 1.34285L2.65764 1.21786V1.1708L2.90428 1.29579V1.34285V1.34285ZM3.05761 1.32498L2.96259 1.2768V1.22974L3.05761 1.27792V1.32498ZM2.90428 1.24725L2.65764 1.12226V1.0752L2.90428 1.20019V1.24725Z" fill="#F1F1F9"/>
<path fill-rule="evenodd" clip-rule="evenodd" d="M2.90422 1.15164L2.65764 1.02662V0.979553L2.90422 1.10458V1.15164V1.15164Z" fill="#FEA21D"/>
<path d="M5.21625 3.94975L5.1832 3.95481L5.18083 3.9318L4.0305 3.34883V2.47784L5.21625 3.07884V3.94975Z" fill="#D8D8E0"/>
<path d="M3.99747 2.48254V3.35374L5.18322 3.95481V3.08369L3.99747 2.48254Z" fill="#F1F1F9"/>
<path d="M4.03605 2.6452V3.33339L5.14192 3.89399V3.20588L4.03605 2.6452V2.6452Z" fill="#FCA61F"/>
<path d="M5.21618 3.17292L5.18313 3.19206L5.17901 3.15407L4.03038 2.57164V2.52028C4.01812 2.5117 4.00618 2.50308 4.00618 2.50308L3.99742 2.48262L4.03038 2.46344L5.21618 3.06474V3.17292Z" fill="#9DA2C5"/>
<path fill-rule="evenodd" clip-rule="evenodd" d="M5.18322 3.08397L5.21626 3.06482V3.17295L5.18322 3.19208V3.08397Z" fill="#8B91AF"/>
<path d="M3.99747 2.48254V2.59075L5.18322 3.19204V3.08385L3.99747 2.48254V2.48254Z" fill="#B1B5D3"/>
<path fill-rule="evenodd" clip-rule="evenodd" d="M4.81025 3.61346L4.99383 3.70621V3.73243L4.81025 3.63969V3.61346Z" fill="#F1F1F9"/>
<path fill-rule="evenodd" clip-rule="evenodd" d="M5.00596 3.60571L5.05905 3.63244V3.65856L5.00596 3.63184V3.60571Z" fill="#F1F1F9"/>
<path fill-rule="evenodd" clip-rule="evenodd" d="M4.92025 3.56189L4.97338 3.589V3.6155L4.92025 3.58838V3.56189V3.56189Z" fill="#F1F1F9"/>
<path fill-rule="evenodd" clip-rule="evenodd" d="M4.3778 3.39392L4.69192 3.55311V3.57943L4.3778 3.42025V3.39392Z" fill="#F1F1F9"/>
<path fill-rule="evenodd" clip-rule="evenodd" d="M4.65927 3.48309L4.71239 3.51022V3.5367L4.65927 3.50959V3.48309V3.48309Z" fill="#F1F1F9"/>
<path fill-rule="evenodd" clip-rule="evenodd" d="M4.44308 3.3739L4.62668 3.46668V3.4929L4.44308 3.40013V3.3739Z" fill="#F1F1F9"/>
<path fill-rule="evenodd" clip-rule="evenodd" d="M4.90807 3.47516L4.7245 3.38238V3.35614L4.90807 3.44891V3.47516Z" fill="#FC3C37"/>
<path fill-rule="evenodd" clip-rule="evenodd" d="M4.59407 3.34351L4.77765 3.43628V3.4625L4.59407 3.36974V3.34351Z" fill="#F1F1F9"/>
<path fill-rule="evenodd" clip-rule="evenodd" d="M4.85499 3.36884L4.90811 3.39557V3.42171L4.85499 3.39498V3.36884Z" fill="#F1F1F9"/>
<path fill-rule="evenodd" clip-rule="evenodd" d="M5.0591 3.39165L4.87552 3.2983V3.27191L5.0591 3.36525V3.39165Z" fill="#F1F1F9"/>
<path fill-rule="evenodd" clip-rule="evenodd" d="M4.29214 3.297L4.41042 3.35725V3.38367L4.29214 3.32344V3.297Z" fill="#F1F1F9"/>
<path fill-rule="evenodd" clip-rule="evenodd" d="M4.50834 3.19312L4.82239 3.35231V3.37863L4.50834 3.21944V3.19312V3.19312Z" fill="#F1F1F9"/>
<path fill-rule="evenodd" clip-rule="evenodd" d="M4.6919 3.36591L4.37778 3.20673V3.18042L4.6919 3.3396V3.36591Z" fill="#F1F1F9"/>
<path fill-rule="evenodd" clip-rule="evenodd" d="M4.29214 3.2439L4.47574 3.33696V3.36327L4.29214 3.27022V3.2439V3.2439Z" fill="#F1F1F9"/>
<path fill-rule="evenodd" clip-rule="evenodd" d="M4.25948 3.36027L4.12164 3.29062V3.2644L4.25948 3.33405V3.36027Z" fill="#F1F1F9"/>
<path fill-rule="evenodd" clip-rule="evenodd" d="M4.50834 3.30005L4.56147 3.32697V3.35328L4.50834 3.32637V3.30005Z" fill="#F1F1F9"/>
<path fill-rule="evenodd" clip-rule="evenodd" d="M4.25948 3.30718L4.12164 3.23727V3.21094L4.25948 3.28085V3.30718Z" fill="#FC3C37"/>
<path fill-rule="evenodd" clip-rule="evenodd" d="M4.84287 3.28204L4.46359 3.08979V3.06348L4.84287 3.25574V3.28204Z" fill="#F1F1F9"/>
<path fill-rule="evenodd" clip-rule="evenodd" d="M4.25948 3.25369L4.12164 3.18379V3.15747L4.25948 3.22737V3.25369Z" fill="#F1F1F9"/>
<path fill-rule="evenodd" clip-rule="evenodd" d="M4.90807 3.2082L4.59398 3.0487V3.02234L4.90807 3.18184V3.2082Z" fill="#FC3C37"/>
<path fill-rule="evenodd" clip-rule="evenodd" d="M4.29214 3.08319L4.47574 3.17654V3.20292L4.29214 3.10959V3.08319Z" fill="#F1F1F9"/>
<path fill-rule="evenodd" clip-rule="evenodd" d="M4.25948 3.20022L4.12164 3.13032V3.104L4.25948 3.1739V3.20022Z" fill="#F1F1F9"/>
<path fill-rule="evenodd" clip-rule="evenodd" d="M4.77767 3.19554L4.59404 3.1022V3.07581L4.77767 3.16913V3.19554V3.19554Z" fill="#F1F1F9"/>
<path fill-rule="evenodd" clip-rule="evenodd" d="M4.56138 3.19251L4.50831 3.16578V3.13965L4.56138 3.16638V3.19251Z" fill="#F1F1F9"/>
<path fill-rule="evenodd" clip-rule="evenodd" d="M4.34526 3.19021L4.29214 3.1631V3.1366L4.34526 3.16373V3.19021Z" fill="#F1F1F9"/>
<path fill-rule="evenodd" clip-rule="evenodd" d="M4.47574 3.1491L4.29214 3.05633V3.03009L4.47574 3.12287V3.1491V3.1491Z" fill="#FC3C37"/>
<path fill-rule="evenodd" clip-rule="evenodd" d="M4.25948 3.14676L4.12164 3.07658V3.05017L4.25948 3.12034V3.14676Z" fill="#F1F1F9"/>
<path fill-rule="evenodd" clip-rule="evenodd" d="M4.56138 3.08599L4.37784 2.99293V2.96661L4.56138 3.05966V3.08599V3.08599Z" fill="#F1F1F9"/>
<path fill-rule="evenodd" clip-rule="evenodd" d="M4.43099 3.07333L4.3778 3.04639V3.02008L4.43099 3.047V3.07333Z" fill="#F1F1F9"/>
<path fill-rule="evenodd" clip-rule="evenodd" d="M4.25948 3.03951L4.12164 2.96986V2.94366L4.25948 3.01329V3.03951V3.03951Z" fill="#F1F1F9"/>
<path fill-rule="evenodd" clip-rule="evenodd" d="M4.56138 3.0325L4.50831 3.00555V2.97925L4.56138 3.00617V3.0325Z" fill="#F1F1F9"/>
<path fill-rule="evenodd" clip-rule="evenodd" d="M4.34526 3.02988L4.29214 3.00294V2.97662L4.34526 3.00356V3.02988Z" fill="#F1F1F9"/>
<path fill-rule="evenodd" clip-rule="evenodd" d="M4.47574 2.98906L4.29214 2.896V2.86969L4.47574 2.96275V2.98906Z" fill="#F1F1F9"/>
<path fill-rule="evenodd" clip-rule="evenodd" d="M4.25948 2.98604L4.12164 2.91616V2.88983L4.25948 2.95972V2.98604Z" fill="#F1F1F9"/>
<path fill-rule="evenodd" clip-rule="evenodd" d="M4.25948 2.93295L4.12164 2.86305V2.83673L4.25948 2.90662V2.93295Z" fill="#F1F1F9"/>
<path fill-rule="evenodd" clip-rule="evenodd" d="M4.72453 3.57001L4.77766 3.59694V3.62325L4.72453 3.59633V3.57001V3.57001Z" fill="#FEA21D"/>
<path fill-rule="evenodd" clip-rule="evenodd" d="M4.50834 3.35352L4.88762 3.54544V3.57171L4.50834 3.37979V3.35352V3.35352Z" fill="#40CD8E"/>
<path fill-rule="evenodd" clip-rule="evenodd" d="M4.29214 3.35083L4.34526 3.37773V3.40406L4.29214 3.37713V3.35083Z" fill="#FEA21D"/>
<path fill-rule="evenodd" clip-rule="evenodd" d="M4.29214 3.19043L4.47574 3.28349V3.30982L4.29214 3.21676V3.19043V3.19043Z" fill="#40CD8E"/>
<path fill-rule="evenodd" clip-rule="evenodd" d="M4.77767 3.30248L4.59404 3.20942V3.18311L4.77767 3.27617V3.30248Z" fill="#4DCEFF"/>
<path fill-rule="evenodd" clip-rule="evenodd" d="M4.99385 3.25165L4.94072 3.22473V3.19843L4.99385 3.22535V3.25165Z" fill="#4DCEFF"/>
<path fill-rule="evenodd" clip-rule="evenodd" d="M4.25948 3.09335L4.12164 3.02318V2.99677L4.25948 3.06693V3.09335Z" fill="#40CD8E"/>
<path fill-rule="evenodd" clip-rule="evenodd" d="M4.34526 2.97642L4.29214 2.94948V2.92316L4.34526 2.9501V2.97642Z" fill="#5DADFD"/>
<path fill-rule="evenodd" clip-rule="evenodd" d="M4.25948 2.8931L4.12164 2.82293V2.79651L4.25948 2.86669V2.8931V2.8931Z" fill="#FEA21D"/>
<path d="M2.57808 1.23088L2.55267 1.23477L2.55085 1.21708L1.66641 0.768899V0.0993042L2.57808 0.561335V1.23088V1.23088Z" fill="#D8D8E0"/>
<path d="M1.641 0.103088V0.772737L2.55273 1.23475V0.565156L1.641 0.103088V0.103088Z" fill="#F1F1F9"/>
<path d="M1.67109 0.228638V0.7602L2.52553 1.19322V0.661711L1.67109 0.228638V0.228638Z" fill="#FCA61F"/>
<path d="M2.57802 0.633759L2.55261 0.648463L2.54943 0.61927L1.66631 0.171653V0.132187C1.65689 0.12559 1.64771 0.118963 1.64771 0.118963L1.64098 0.103245L1.66631 0.088501L2.57802 0.550611V0.633759V0.633759Z" fill="#9DA2C5"/>
<path fill-rule="evenodd" clip-rule="evenodd" d="M2.55273 0.565367L2.57808 0.550598V0.633745L2.55273 0.648449V0.565367Z" fill="#8B91AF"/>
<path d="M1.641 0.103088V0.186255L2.55273 0.648433V0.565271L1.641 0.103088V0.103088Z" fill="#B1B5D3"/>
<path fill-rule="evenodd" clip-rule="evenodd" d="M2.26594 0.972485L2.40711 1.04402V1.06424L2.26594 0.992712V0.972485V0.972485ZM2.41643 0.96655L2.45725 0.987244V1.00747L2.41643 0.986778V0.96655ZM2.3505 0.933139L2.39136 0.953843V0.974075L2.3505 0.953366V0.933139V0.933139ZM1.93346 0.803963L2.17495 0.926366V0.946609L1.93346 0.824206V0.803963ZM2.14985 0.872542L2.19071 0.893256V0.913478L2.14985 0.892774V0.872542ZM1.98361 0.788291L2.12478 0.859845V0.880067L1.98361 0.808523V0.788291V0.788291ZM2.34118 0.866437L2.20002 0.794878V0.774641L2.34118 0.846194V0.866437ZM2.09971 0.764908L2.24087 0.836467V0.856689L2.09971 0.78514V0.764908ZM2.30033 0.784383L2.34118 0.805087V0.825319L2.30033 0.80462V0.784383V0.784383ZM2.45728 0.801941L2.31611 0.730388V0.710156L2.45728 0.781709V0.801941ZM1.86755 0.729455L1.95854 0.775584V0.795816L1.86755 0.749702V0.729455ZM2.03379 0.649278L2.27528 0.771686V0.791918L2.03379 0.669515V0.649278ZM2.17496 0.782166L1.93346 0.659773V0.63954L2.17496 0.761933V0.782166ZM1.86755 0.688348L2.00873 0.759906V0.780134L1.86755 0.708585V0.688348ZM1.84248 0.778097L1.73644 0.724338V0.7041L1.84248 0.75786V0.778097ZM2.03379 0.731507L2.07465 0.752206V0.772433L2.03379 0.751739V0.731507V0.731507ZM1.84248 0.736995L1.73644 0.683236V0.662993L1.84248 0.716753V0.736995ZM2.29102 0.717681L1.99938 0.569853V0.54962L2.29102 0.697453V0.717681ZM1.84248 0.695873L1.73644 0.642129V0.621891L1.84248 0.67564V0.695873ZM2.34118 0.660886L2.09971 0.538483V0.518256L2.34118 0.640659V0.660886ZM1.86755 0.565022L2.00873 0.636575V0.656803L1.86755 0.585259V0.565022V0.565022ZM1.84248 0.654771L1.73644 0.601022V0.580789L1.84248 0.634533V0.654771ZM2.24088 0.651159L2.09972 0.5796V0.559373L2.24088 0.630911V0.651159ZM2.07465 0.649107L2.03379 0.628408V0.608176L2.07465 0.628875V0.649107ZM1.90839 0.64707L1.86755 0.626361V0.606129L1.90839 0.626843V0.64707ZM2.00873 0.615701L1.86755 0.544147V0.52391L2.00873 0.595468V0.615701V0.615701ZM1.84248 0.613659L1.73644 0.559905V0.539677L1.84248 0.593416V0.613659V0.613659ZM2.07465 0.566903L1.93346 0.49535V0.475117L2.07465 0.546661V0.566903V0.566903ZM1.97432 0.557161L1.93346 0.536446V0.516219L1.97432 0.536913V0.557161ZM1.84248 0.53144L1.73644 0.477686V0.457463L1.84248 0.511197V0.53144V0.53144ZM2.07465 0.525786L2.03379 0.505067V0.484845L2.07465 0.505548V0.525786ZM1.90839 0.523744L1.86755 0.50303V0.482798L1.90839 0.503512V0.523744ZM2.00873 0.49237L1.86755 0.420821V0.400589L2.00873 0.472142V0.49237V0.49237ZM1.84248 0.490328L1.73644 0.436594V0.416351L1.84248 0.47009V0.490328V0.490328ZM1.84248 0.449226L1.73644 0.395482V0.375244L1.84248 0.428988V0.449226Z" fill="#F1F1F9"/>
<path fill-rule="evenodd" clip-rule="evenodd" d="M2.19997 0.939087L2.24082 0.959791V0.980023L2.19997 0.959319V0.939087Z" fill="#FEA21D"/>
<path fill-rule="evenodd" clip-rule="evenodd" d="M2.03381 0.772583L2.32544 0.920406V0.940638L2.03381 0.792815V0.772583Z" fill="#40CD8E"/>
<path fill-rule="evenodd" clip-rule="evenodd" d="M1.86751 0.770386L1.90842 0.791162V0.811495L1.86751 0.790699V0.770386Z" fill="#FEA21D" fill-opacity="0.42"/>
<path fill-rule="evenodd" clip-rule="evenodd" d="M1.86751 0.647034L2.00875 0.71873V0.739018L1.86751 0.667317V0.647034V0.647034Z" fill="#40CD8E"/>
<path fill-rule="evenodd" clip-rule="evenodd" d="M2.24082 0.733509L2.09973 0.661676V0.641357L2.24082 0.713196V0.733509Z" fill="#4DCEFF"/>
<path fill-rule="evenodd" clip-rule="evenodd" d="M2.40711 0.694308L2.36626 0.673609V0.653381L2.40711 0.674085V0.694308V0.694308Z" fill="#4DCEFF"/>
<path fill-rule="evenodd" clip-rule="evenodd" d="M1.84244 0.572578L1.73644 0.518829V0.498596L1.84244 0.552345V0.572578Z" fill="#40CD8E"/>
<path fill-rule="evenodd" clip-rule="evenodd" d="M1.90842 0.482663L1.86751 0.461949V0.441711L1.90842 0.462431V0.482663Z" fill="#5DADFD"/>
<path fill-rule="evenodd" clip-rule="evenodd" d="M1.84244 0.418591L1.73644 0.364847V0.344604L1.84244 0.398364V0.418591Z" fill="#FEA21D"/>
<path d="M1.2673 2.00171V2.02049C1.24705 2.0286 1.23692 2.04872 1.23692 2.08085C1.23692 2.11304 1.24705 2.14264 1.2673 2.16967V2.18845C1.24879 2.17122 1.23395 2.15147 1.22276 2.1292C1.21157 2.10693 1.20598 2.08599 1.20598 2.06639C1.20598 2.04679 1.21147 2.03117 1.22247 2.01952C1.23347 2.00788 1.24842 2.00194 1.2673 2.00171V2.00171Z" fill="#FCA61F"/>
<path d="M1.35291 2.04169V2.06047C1.37315 2.0875 1.38328 2.11708 1.38328 2.14921C1.38328 2.1814 1.37315 2.20155 1.35291 2.20967V2.22845C1.3714 2.2285 1.38625 2.22262 1.39744 2.2108C1.40863 2.19898 1.41423 2.18326 1.41423 2.16366C1.41423 2.14406 1.40872 2.12329 1.39772 2.10137C1.38672 2.07945 1.37178 2.05955 1.35291 2.04169V2.04169Z" fill="#FCA61F"/>
<path d="M5.55841 2.09709L5.56572 2.10051C5.57945 2.10692 5.58631 2.10456 5.58631 2.09342C5.58631 2.08742 5.58537 2.08085 5.58348 2.07371L5.58004 2.06029C5.57786 2.05164 5.57676 2.04384 5.57676 2.0369C5.57676 2.02473 5.58224 2.01773 5.59318 2.0159C5.60412 2.01408 5.61924 2.01766 5.63853 2.02668V2.04892C5.62202 2.04206 5.61376 2.04369 5.61376 2.0538C5.61376 2.05628 5.61426 2.06037 5.61526 2.06606L5.6175 2.07803C5.61859 2.08446 5.61914 2.0908 5.61914 2.09706C5.61914 2.11462 5.60934 2.12371 5.58974 2.12432C5.60934 2.14342 5.61914 2.1617 5.61914 2.17919C5.61914 2.18544 5.61859 2.19127 5.6175 2.19667L5.61526 2.20655C5.61426 2.21131 5.61376 2.21493 5.61376 2.21742C5.61376 2.22753 5.62202 2.23687 5.63853 2.24544V2.26768C5.61924 2.25866 5.60412 2.24813 5.59318 2.23608C5.58224 2.22403 5.57676 2.21192 5.57676 2.19975C5.57676 2.19281 5.57786 2.18604 5.58004 2.17943L5.58348 2.16921C5.58537 2.16384 5.58631 2.15811 5.58631 2.15203C5.58631 2.14098 5.57945 2.13224 5.56572 2.12583L5.55841 2.12242V2.09709Z" fill="#FCA61F"/>
<path d="M5.84493 2.23079L5.8376 2.22737C5.82386 2.22094 5.81699 2.21214 5.81699 2.20097C5.81699 2.19496 5.81793 2.18926 5.81983 2.18387L5.82326 2.17362C5.82545 2.167 5.82655 2.16021 5.82655 2.15325C5.82655 2.14105 5.82107 2.12891 5.81011 2.11683C5.79915 2.10474 5.78401 2.09418 5.76468 2.08514V2.10744C5.78122 2.11603 5.78949 2.1254 5.78949 2.13553C5.78949 2.13803 5.78899 2.14166 5.788 2.14644L5.78575 2.15634C5.78466 2.16176 5.78411 2.1676 5.78411 2.17387C5.78411 2.19149 5.79392 2.20977 5.81355 2.22875C5.79392 2.22954 5.78411 2.23869 5.78411 2.25622C5.78411 2.26249 5.78466 2.26885 5.78575 2.27529L5.788 2.28729C5.78899 2.293 5.78949 2.2971 5.78949 2.29959C5.78949 2.30973 5.78122 2.31136 5.76468 2.30448V2.32678C5.78401 2.33582 5.79915 2.33942 5.81011 2.33758C5.82107 2.33575 5.82655 2.32873 5.82655 2.31653C5.82655 2.30957 5.82545 2.30176 5.82326 2.29309L5.81983 2.27962C5.81793 2.27246 5.81699 2.26584 5.81699 2.25974C5.81699 2.24866 5.82386 2.24633 5.8376 2.25275L5.84493 2.25618V2.23079V2.23079Z" fill="#FCA61F"/>
<path d="M2.76582 0.170182L2.5762 0L2.76582 0.006898V0.0335167L2.63834 0.0288762V0.0291522L2.76582 0.143569V0.170182Z" fill="#FCA61F"/>
<path d="M2.75776 0.207266L2.84311 0.00219727L2.87194 0.0156571L2.78659 0.220726L2.75776 0.207266Z" fill="#FCA61F"/>
<path d="M2.86382 0.215958L3.05343 0.222856L2.86382 0.0526733V0.0792921L2.9913 0.193703V0.193979L2.86382 0.189344V0.215958V0.215958Z" fill="#FCA61F"/>
<path d="M3.74572 4.13908L3.8988 4.12894L3.73338 3.9704L3.73539 3.9979L3.8466 4.10449L3.84663 4.10477L3.74371 4.11159L3.74572 4.13908Z" fill="#FCA61F"/>
<path d="M3.87202 4.24784L3.87034 4.22485L4.00814 4.28917L4.00982 4.31215L3.87202 4.24784V4.24784Z" fill="#FCA61F"/>
<path d="M3.35363 0.677294L3.37954 0.689095C3.38864 0.693369 3.39534 0.694453 3.39966 0.692346C3.40398 0.690233 3.40614 0.68484 3.40614 0.67616V0.517029L3.45968 0.544689V0.703183C3.45968 0.745323 3.43592 0.755387 3.38841 0.733382L3.35669 0.718581L3.35363 0.677294Z" fill="#FCA61F"/>
<path d="M3.69082 0.888062L3.66797 0.826713L3.55612 0.76893L3.53327 0.806671L3.47974 0.779009L3.59022 0.612183L3.63284 0.634206L3.74333 0.915193L3.69082 0.888062V0.888062ZM3.57351 0.740435L3.65058 0.780253L3.61204 0.676497L3.57351 0.740435V0.740435Z" fill="#FCA61F"/>
<path d="M3.9206 0.782877L3.97447 0.810715L3.86638 0.97877L3.82375 0.956752L3.71532 0.676819L3.77056 0.705364L3.84558 0.906414L3.9206 0.782877V0.782877Z" fill="#FCA61F"/>
<path d="M4.15759 1.12915L4.13473 1.0678L4.02286 1.01001L4.00001 1.04775L3.94646 1.0201L4.05697 0.853271L4.09961 0.875295L4.21012 1.15628L4.15759 1.12915V1.12915ZM4.04026 0.981524L4.11734 1.02134L4.0788 0.917586L4.04026 0.981524V0.981524Z" fill="#FCA61F"/>
<path d="M4.31174 1.21161C4.29357 1.20221 4.27606 1.1909 4.25925 1.17766C4.24244 1.16442 4.22846 1.1509 4.21732 1.1371L4.23436 1.11067C4.25755 1.13767 4.28357 1.15863 4.31243 1.17354C4.32743 1.18129 4.33896 1.18497 4.34703 1.18459C4.3551 1.18421 4.35913 1.17999 4.35913 1.17195C4.35913 1.16476 4.35544 1.15724 4.34805 1.1494C4.34067 1.14156 4.32754 1.13086 4.30868 1.11731C4.28754 1.10236 4.27067 1.08878 4.25806 1.07655C4.24545 1.06431 4.23624 1.05252 4.23044 1.04117C4.22465 1.02981 4.22175 1.018 4.22175 1.00572C4.22175 0.992171 4.22578 0.98219 4.23386 0.975771C4.24192 0.969356 4.25323 0.966893 4.26777 0.968373C4.28231 0.969858 4.29913 0.97553 4.31822 0.98539C4.33527 0.994197 4.35169 1.00501 4.36748 1.01782C4.38328 1.03064 4.39583 1.04338 4.40515 1.05602L4.3881 1.08246C4.36606 1.05604 4.34288 1.03655 4.31857 1.02399C4.3047 1.01682 4.29379 1.01368 4.28584 1.01454C4.27789 1.0154 4.27391 1.02018 4.27391 1.02885C4.27391 1.03393 4.27544 1.03891 4.27851 1.04377C4.28158 1.04864 4.28669 1.05419 4.29385 1.06043C4.30101 1.06667 4.31118 1.07457 4.32436 1.08413C4.35527 1.10645 4.37748 1.12608 4.39101 1.14301C4.40453 1.15995 4.41129 1.1772 4.41129 1.19477C4.41129 1.21594 4.40254 1.22809 4.38504 1.23122C4.36754 1.23435 4.34311 1.22781 4.31174 1.21161V1.21161Z" fill="#FCA61F"/>
<path d="M4.56242 1.34114C4.53809 1.32857 4.51689 1.31286 4.49882 1.294C4.48075 1.27513 4.46688 1.25453 4.45722 1.23218C4.44755 1.20983 4.44272 1.18722 4.44272 1.16436C4.44272 1.14149 4.44755 1.12388 4.45722 1.11151C4.46688 1.09915 4.48075 1.09292 4.49882 1.09284C4.51689 1.09275 4.53809 1.09899 4.56242 1.11155C4.57833 1.11978 4.59356 1.12992 4.60811 1.14199C4.62266 1.15405 4.63459 1.16651 4.64391 1.17937L4.62686 1.20581C4.6164 1.193 4.606 1.18223 4.59566 1.1735C4.58532 1.16477 4.57458 1.15753 4.56344 1.15178C4.54207 1.14074 4.52564 1.1386 4.51416 1.14538C4.50268 1.15215 4.49694 1.16781 4.49694 1.19237C4.49694 1.21692 4.50268 1.23857 4.51416 1.25731C4.52564 1.27604 4.54207 1.29093 4.56344 1.30197C4.57458 1.30772 4.58532 1.31158 4.59566 1.31354C4.606 1.31549 4.6164 1.31547 4.62686 1.31346L4.64391 1.35751C4.63459 1.36074 4.62266 1.36088 4.60811 1.35791C4.59356 1.35495 4.57833 1.34936 4.56242 1.34114V1.34114Z" fill="#FCA61F"/>
<path d="M4.88944 1.50726L4.83148 1.47731L4.78987 1.38436C4.78647 1.37709 4.78237 1.37101 4.7776 1.36611C4.77283 1.36121 4.7668 1.35688 4.75952 1.35312L4.73327 1.33955V1.42657L4.68075 1.39944V1.17554L4.79124 1.23262C4.81943 1.24718 4.84074 1.26396 4.85517 1.28296C4.86961 1.30196 4.87683 1.32236 4.87683 1.34417C4.87683 1.36111 4.87177 1.37268 4.86165 1.37889C4.85153 1.38509 4.83727 1.38524 4.81886 1.37933C4.83136 1.38875 4.84193 1.40257 4.85057 1.4208L4.88944 1.50726V1.50726ZM4.78339 1.32798C4.79863 1.33584 4.80965 1.33905 4.81647 1.3376C4.82329 1.33615 4.8267 1.33013 4.8267 1.31954C4.8267 1.30874 4.82329 1.29914 4.81647 1.29075C4.80965 1.28236 4.79863 1.27423 4.78339 1.26636L4.73259 1.24011V1.30172L4.78339 1.32798Z" fill="#FCA61F"/>
<path d="M4.91979 1.52298V1.29907L4.97298 1.32655V1.55046L4.91979 1.52298Z" fill="#FCA61F"/>
<path d="M5.0207 1.35138L5.13119 1.40842C5.15733 1.42191 5.17767 1.43856 5.19222 1.45834C5.20677 1.47812 5.21405 1.49901 5.21405 1.52102C5.21405 1.54302 5.20677 1.5564 5.19222 1.56117C5.17767 1.56592 5.15733 1.56156 5.13119 1.54806L5.07389 1.51849V1.60258L5.0207 1.57512V1.35138ZM5.12436 1.50709C5.15096 1.52082 5.16426 1.517 5.16426 1.49564C5.16426 1.48463 5.16096 1.47478 5.15438 1.46609C5.14778 1.4574 5.13777 1.44959 5.12436 1.44266L5.07389 1.41661V1.48103L5.12436 1.50709V1.50709Z" fill="#FCA61F"/>
<path d="M5.30007 1.71945V1.53587L5.22471 1.49694V1.4566L5.42863 1.56196V1.60229L5.35327 1.56336V1.74693L5.30007 1.71945V1.71945Z" fill="#FCA61F"/>
<path d="M0.106234 1.93488L0.177297 1.97159C0.194114 1.98028 0.207205 1.99099 0.216559 2.00372C0.225919 2.01646 0.230599 2.02991 0.230599 2.04407C0.230599 2.05824 0.225919 2.06686 0.216559 2.06992C0.207205 2.07298 0.194114 2.07017 0.177297 2.06148L0.140451 2.04244V2.09658L0.106234 2.0789V1.93488ZM0.172914 2.03511C0.190022 2.04395 0.198577 2.04149 0.198577 2.02773C0.198577 2.02065 0.196457 2.01432 0.192217 2.00872C0.187971 2.00312 0.181537 1.9981 0.172914 1.99364L0.140451 1.97687V2.01834L0.172914 2.03511Z" fill="#FCA61F"/>
<path d="M0.388309 2.08064L0.324251 2.1264V2.19157L0.290031 2.17389V2.10873L0.226196 1.99689L0.265023 2.01695L0.306924 2.09191L0.349482 2.06058L0.388309 2.08064V2.08064Z" fill="#FCA61F"/>
<path d="M0.431468 2.24695V2.12887L0.382994 2.10383V2.07788L0.514159 2.14565V2.17159L0.465685 2.14655V2.26463L0.431468 2.24695V2.24695Z" fill="#FCA61F"/>
<path d="M0.636994 2.2088L0.670554 2.22617V2.37044L0.636994 2.35307V2.2925L0.565703 2.2556V2.31618L0.532143 2.29881V2.15454L0.565703 2.17191V2.23023L0.636994 2.26712V2.2088Z" fill="#FCA61F"/>
<path d="M0.772324 2.42471C0.75697 2.41678 0.743627 2.40687 0.732296 2.39497C0.720964 2.38307 0.712227 2.36999 0.706084 2.35574C0.699941 2.34148 0.696873 2.32687 0.696873 2.31191C0.696873 2.29694 0.699941 2.2855 0.706084 2.27759C0.712227 2.26967 0.720964 2.26564 0.732296 2.26551C0.743627 2.26537 0.75697 2.26926 0.772324 2.27719C0.787678 2.28511 0.801021 2.29498 0.812358 2.30682C0.82369 2.31865 0.832427 2.3317 0.83857 2.34595C0.844707 2.36021 0.847781 2.37482 0.847781 2.38978C0.847781 2.40474 0.844707 2.41618 0.83857 2.4241C0.832427 2.43202 0.82369 2.43608 0.812358 2.43629C0.801021 2.43649 0.787678 2.43263 0.772324 2.42471V2.42471ZM0.772324 2.40002C0.785193 2.40666 0.795318 2.40767 0.802707 2.40304C0.81009 2.39842 0.813781 2.38815 0.813781 2.37224C0.813781 2.35632 0.810124 2.3423 0.802816 2.33015C0.795501 2.31802 0.785341 2.30859 0.772324 2.30187C0.759313 2.29516 0.749187 2.29412 0.741947 2.29875C0.734707 2.30338 0.73109 2.31365 0.73109 2.32956C0.73109 2.34548 0.734747 2.35954 0.742056 2.37175C0.74937 2.38395 0.759456 2.39338 0.772324 2.40002V2.40002Z" fill="#FCA61F"/>
<path d="M0.976097 2.38401L1.00812 2.40059V2.54486L0.98268 2.53169L0.905692 2.39996V2.49185L0.873886 2.47539V2.33112L0.899109 2.34417L0.976097 2.47549V2.38401Z" fill="#FCA61F"/>
<defs>
<linearGradient id="paint0_linear_307_678" x1="1.33034" y1="3.06398" x2="4.30783" y2="3.64994" gradientUnits="userSpaceOnUse">
<stop stop-color="#500071"/>
<stop offset="0.41" stop-color="#55007A"/>
<stop offset="0.55" stop-color="#62008F"/>
<stop offset="0.66" stop-color="#7000A6"/>
<stop offset="0.72" stop-color="#62008F"/>
<stop offset="0.79" stop-color="#55007A"/>
<stop offset="1" stop-color="#500071"/>
</linearGradient>
<linearGradient id="paint1_linear_307_678" x1="3.38069" y1="2.38636" x2="2.2141" y2="3.47029" gradientUnits="userSpaceOnUse">
<stop stop-color="#9B59B6"/>
<stop offset="1" stop-color="#7C2BA1"/>
</linearGradient>
<linearGradient id="paint2_linear_307_678" x1="2.23488" y1="3.33038" x2="3.21421" y2="2.64841" gradientUnits="userSpaceOnUse">
<stop stop-color="#500071"/>
<stop offset="1" stop-color="#500071"/>
</linearGradient>
<linearGradient id="paint3_linear_307_678" x1="3.05347" y1="2.50721" x2="2.22407" y2="3.09549" gradientUnits="userSpaceOnUse">
<stop stop-color="#F3D5FF"/>
<stop offset="1" stop-color="#DA7EFF"/>
</linearGradient>
<linearGradient id="paint4_linear_307_678" x1="2.84392" y1="0.642966" x2="4.47109" y2="2.83542" gradientUnits="userSpaceOnUse">
<stop stop-color="#F3C9FF"/>
<stop offset="0.47" stop-color="#F1CEFF"/>
<stop offset="0.61" stop-color="#ECDAFF"/>
<stop offset="0.74" stop-color="#E7E8FF"/>
<stop offset="0.79" stop-color="#E2BDFF"/>
<stop offset="0.85" stop-color="#DC92FF"/>
<stop offset="1" stop-color="#DA7EFF"/>
</linearGradient>
<linearGradient id="paint5_linear_307_678" x1="2.54121" y1="0.724553" x2="2.99278" y2="2.567" gradientUnits="userSpaceOnUse">
<stop stop-color="#9B59B6"/>
<stop offset="1" stop-color="#7C2BA1"/>
</linearGradient>
<linearGradient id="paint6_linear_307_678" x1="4.08368" y1="2.94608" x2="2.75332" y2="0.646937" gradientUnits="userSpaceOnUse">
<stop stop-color="#500071"/>
<stop offset="0.4" stop-color="#550079"/>
<stop offset="0.52" stop-color="#62008E"/>
<stop offset="0.63" stop-color="#7000A6"/>
<stop offset="0.7" stop-color="#62008F"/>
<stop offset="0.77" stop-color="#55007A"/>
<stop offset="1" stop-color="#500071"/>
</linearGradient>
<linearGradient id="paint7_linear_307_678" x1="2.96259" y1="1.25193" x2="4.94802" y2="3.94935" gradientUnits="userSpaceOnUse">
<stop stop-color="#232323"/>
<stop offset="1"/>
</linearGradient>
</defs>
</svg>
